<svg width="38" height="38" viewBox="0 0 38 38" fill="none" xmlns="http://www.w3.org/2000/svg">
<g id="basil:login-solid">
<path id="Vector" d="M17.8125 30.0833C17.8125 29.7683 17.9376 29.4663 18.1603 29.2436C18.383 29.0209 18.6851 28.8958 19 28.8958H28.5C28.605 28.8958 28.7057 28.8541 28.7799 28.7799C28.8541 28.7056 28.8958 28.6049 28.8958 28.5V9.49996C28.8958 9.39498 28.8541 9.2943 28.7799 9.22006C28.7057 9.14583 28.605 9.10413 28.5 9.10413H19C18.6851 9.10413 18.383 8.97901 18.1603 8.75632C17.9376 8.53362 17.8125 8.23157 17.8125 7.91663C17.8125 7.60168 17.9376 7.29964 18.1603 7.07694C18.383 6.85424 18.6851 6.72913 19 6.72913H28.5C30.0295 6.72913 31.2708 7.97046 31.2708 9.49996V28.5C31.2708 29.2348 30.9789 29.9396 30.4593 30.4592C29.9396 30.9789 29.2349 31.2708 28.5 31.2708H19C18.6851 31.2708 18.383 31.1457 18.1603 30.923C17.9376 30.7003 17.8125 30.3982 17.8125 30.0833Z" fill="#C631F3"/>
<path id="Vector_2" d="M5.54199 20.7654C5.54199 21.1853 5.70881 21.588 6.00574 21.8849C6.30267 22.1819 6.7054 22.3487 7.12533 22.3487H14.814C14.8504 22.9124 14.8963 23.4729 14.9502 24.0365L14.9977 24.5194C15.0153 24.7014 15.0767 24.8765 15.1764 25.0297C15.2762 25.183 15.4115 25.3099 15.5708 25.3997C15.73 25.4895 15.9086 25.5396 16.0914 25.5457C16.2742 25.5518 16.4557 25.5137 16.6206 25.4346C19.5144 24.0473 22.134 22.149 24.3536 19.8312L24.4011 19.7821C24.6049 19.5696 24.7187 19.2865 24.7187 18.992C24.7187 18.6976 24.6049 18.4145 24.4011 18.2019L24.3536 18.1529C22.1341 15.835 19.5144 13.9367 16.6206 12.5494C16.4557 12.4704 16.2742 12.4323 16.0914 12.4384C15.9086 12.4444 15.73 12.4945 15.5708 12.5843C15.4115 12.6742 15.2762 12.8011 15.1764 12.9543C15.0767 13.1076 15.0153 13.2826 14.9977 13.4646L14.9502 13.9475C14.8963 14.5096 14.8504 15.0717 14.814 15.6354H7.12533C6.7054 15.6354 6.30267 15.8022 6.00574 16.0991C5.70881 16.396 5.54199 16.7988 5.54199 17.2187V20.7654Z" fill="#C631F3"/>
</g>
</svg>
